<svg xmlns="http://www.w3.org/2000/svg" viewBox="0 0 70 66">
	<defs>
		<style>.dc5d9f0e-6e39-4b12-bf23-3fbf3366b89e{fill:#dc0d15;}.c12fc9c3-30c5-4002-9834-c52c3b58eeda{fill:#fff;}</style>
	</defs>
	<g id="b3a95dac-a734-40c6-b769-c4199bdeafed" data-name="logo-mcplus-black">
		<path class="dc5d9f0e-6e39-4b12-bf23-3fbf3366b89e" d="M0,56.1,16,66V0L0,8.25ZM17.54,0V66L70,60.26V5.74Z"></path>
		<path class="c12fc9c3-30c5-4002-9834-c52c3b58eeda" d="M58.89,31.12l-3.35,1.06C52.45,34.47,48,43.64,47.68,44.24a77.91,77.91,0,0,1,6.63,6.43s-5.21-1-7.79-.34c-3.8.93-9.21,6.69-9.21,6.69,1.12-1.65,3.87-11.65,3.87-11.65-.12-.76.46-10,.46-10-2.73-4.08-7.54-7.44-11.48-10.26-3.11-2.19-6.13-4.89-9.47-7l-.17-.1c5.08.3,10,1.83,14.56,3.32A49.69,49.69,0,0,1,42.3,24.1q.42.2.87.45S41,17,39.89,14c-.71-2-1.44-4.42-2.87-6.06l1,.85a49.62,49.62,0,0,1,7.18,7.45A46.63,46.63,0,0,1,50.88,26a5.14,5.14,0,0,1,4.92-1.14c2,.61,2.9,2,3.54,4.23a48.48,48.48,0,0,1,9.16,6.81C66.92,34.56,60.9,31.26,58.89,31.12Z"></path>
	</g>
</svg>